<svg id="Layer_1" data-name="Layer 1" xmlns="http://www.w3.org/2000/svg" viewBox="0 0 96 96"><defs><style>.cls-1{fill:#00bbf0;}.cls-2{fill:#00204a;}</style></defs><title>PantherHackers-Logo</title><polygon class="cls-1" points="72.67 35.77 72.67 37.08 69.48 37.08 69.48 38.6 72.67 38.6 72.67 39.91 76.81 39.91 76.81 35.77 72.67 35.77"/><polygon class="cls-1" points="72.67 48.09 69.48 48.09 69.48 49.62 72.67 49.62 72.67 50.93 76.81 50.93 76.81 46.78 72.67 46.78 72.67 48.09"/><polygon class="cls-1" points="72.67 59.11 69.48 59.11 69.48 60.63 72.67 60.63 72.67 61.94 76.81 61.94 76.81 57.8 72.67 57.8 72.67 59.11"/><polygon class="cls-1" points="23.33 35.77 19.19 35.77 19.19 39.91 23.33 39.91 23.33 38.6 26.52 38.6 26.52 37.08 23.33 37.08 23.33 35.77"/><polygon class="cls-1" points="23.33 46.78 19.19 46.78 19.19 50.93 23.33 50.93 23.33 49.62 26.52 49.62 26.52 48.09 23.33 48.09 23.33 46.78"/><polygon class="cls-1" points="23.33 57.8 19.19 57.8 19.19 61.94 23.33 61.94 23.33 60.63 26.52 60.63 26.52 59.11 23.33 59.11 23.33 57.8"/><path class="cls-1" d="M56.32,11.2a2.74,2.74,0,1,0-5.48,0,2.71,2.71,0,0,0,.51,1.58l-4.1,4V28.65h1.53V17.44l3.77-3.7a2.74,2.74,0,0,0,3.77-2.54ZM53.58,10a1.22,1.22,0,1,1-1.22,1.22A1.22,1.22,0,0,1,53.58,10Z"/><path class="cls-1" d="M66.2,5.61a2.74,2.74,0,0,0-2.39,4.08L56.63,16.8V28.65h1.53V17.44l6.74-6.68a2.74,2.74,0,1,0,1.3-5.15Z"/><polygon class="cls-1" points="40.71 21.53 40.71 17.38 36.57 17.38 36.57 21.53 37.88 21.53 37.88 28.65 39.4 28.65 39.4 21.53 40.71 21.53"/><polygon class="cls-1" points="58.12 67.35 56.6 67.35 56.6 74.47 55.29 74.47 55.29 78.62 59.43 78.62 59.43 74.47 58.12 74.47 58.12 67.35"/><path class="cls-1" d="M47.22,78.56l-3.77,3.7a2.7,2.7,0,0,0-1-.2,2.75,2.75,0,1,0,2.74,2.74,2.77,2.77,0,0,0-.5-1.58l4.09-4V67.35H47.22ZM42.42,86a1.22,1.22,0,1,1,1.22-1.22A1.22,1.22,0,0,1,42.42,86Z"/><path class="cls-1" d="M37.85,78.56,31.1,85.24a2.74,2.74,0,1,0,1.44,2.41,2.76,2.76,0,0,0-.35-1.34l7.18-7.11V67.35H37.85Z"/><path class="cls-2" d="M65.07,69.93,31,70a4.5,4.5,0,0,1-4.51-4.5l-.05-34A4.48,4.48,0,0,1,31,27l34.05,0a4.47,4.47,0,0,1,4.49,4.47l0,34.06A4.47,4.47,0,0,1,65.07,69.93Z"/><path class="cls-1" d="M41.66,41.79H36.4v2.93h5.26c1.4,0,2.18.62,2.18,1.76,0,1.45-1.19,1.76-2.18,1.76H36.4v7.7h3.32V51.15h1.94c3.34,0,5.5-1.84,5.5-4.68S45,41.79,41.66,41.79Z"/><polygon class="cls-1" points="57.05 41.79 57.05 47.24 52.14 47.24 52.14 41.79 48.81 41.79 48.81 55.93 52.14 55.93 52.14 50.16 57.05 50.16 57.05 55.93 60.37 55.93 60.37 41.79 57.05 41.79"/></svg>