<svg id="Layer_1" data-name="Layer 1" xmlns="http://www.w3.org/2000/svg" viewBox="0 0 96 96"><defs><style>.cls-1{font-size:12.65px;font-family:Novecentoslabcondensed-DemiBold, Novecento slab condensed;font-weight:300;}.cls-1,.cls-3{fill:#00204a;}.cls-2{fill:#00bbf0;}</style></defs><title>PantherHackers-Logo</title><text class="cls-1" transform="translate(46.82 46.82)">PANTHER<tspan x="0" y="11.54">HACKERS</tspan></text><polygon class="cls-2" points="36.21 41.47 36.21 42.17 34.51 42.17 34.51 42.98 36.21 42.98 36.21 43.68 38.42 43.68 38.42 41.47 36.21 41.47"/><polygon class="cls-2" points="36.21 48.05 34.51 48.05 34.51 48.87 36.21 48.87 36.21 49.56 38.42 49.56 38.42 47.35 36.21 47.35 36.21 48.05"/><polygon class="cls-2" points="36.21 53.93 34.51 53.93 34.51 54.75 36.21 54.75 36.21 55.45 38.42 55.45 38.42 53.23 36.21 53.23 36.21 53.93"/><polygon class="cls-2" points="9.86 41.47 7.65 41.47 7.65 43.68 9.86 43.68 9.86 42.98 11.57 42.98 11.57 42.17 9.86 42.17 9.86 41.47"/><polygon class="cls-2" points="9.86 47.35 7.65 47.35 7.65 49.56 9.86 49.56 9.86 48.87 11.57 48.87 11.57 48.05 9.86 48.05 9.86 47.35"/><polygon class="cls-2" points="9.86 53.23 7.65 53.23 7.65 55.45 9.86 55.45 9.86 54.75 11.57 54.75 11.57 53.93 9.86 53.93 9.86 53.23"/><path class="cls-2" d="M27.48,28.35a1.47,1.47,0,1,0-2.93,0,1.45,1.45,0,0,0,.27.84l-2.18,2.15v6.33h.81v-6l2-2a1.42,1.42,0,0,0,.55.11A1.47,1.47,0,0,0,27.48,28.35ZM26,27.7a.65.65,0,1,1-.65.65A.66.66,0,0,1,26,27.7Z"/><path class="cls-2" d="M32.76,25.36a1.47,1.47,0,0,0-1.47,1.47,1.42,1.42,0,0,0,.19.71l-3.84,3.8v6.33h.82v-6l3.6-3.56a1.51,1.51,0,0,0,.7.17,1.47,1.47,0,0,0,0-2.93Z"/><polygon class="cls-2" points="19.14 33.86 19.14 31.65 16.93 31.65 16.93 33.86 17.63 33.86 17.63 37.67 18.45 37.67 18.45 33.86 19.14 33.86"/><polygon class="cls-2" points="28.44 58.33 27.63 58.33 27.63 62.14 26.93 62.14 26.93 64.35 29.14 64.35 29.14 62.14 28.44 62.14 28.44 58.33"/><path class="cls-2" d="M22.62,64.32l-2,2a1.47,1.47,0,1,0,.64.51l2.19-2.15V58.33h-.82Zm-2.56,4a.65.65,0,1,1,.65-.65A.65.65,0,0,1,20.06,68.3Z"/><path class="cls-2" d="M17.61,64.32,14,67.88a1.44,1.44,0,0,0-.69-.17,1.47,1.47,0,1,0,1.46,1.46,1.42,1.42,0,0,0-.19-.71l3.84-3.8V58.33h-.82Z"/><path class="cls-3" d="M32.15,59.71,14,59.74a2.41,2.41,0,0,1-2.41-2.41l0-18.17a2.39,2.39,0,0,1,2.39-2.39l18.18,0a2.4,2.4,0,0,1,2.4,2.39l0,18.19A2.39,2.39,0,0,1,32.15,59.71Z"/><path class="cls-2" d="M19.65,44.68H16.84v1.57h2.81c.75,0,1.16.33,1.16.94,0,.78-.63.94-1.16.94H16.84v4.11h1.77V49.68h1c1.78,0,2.94-1,2.94-2.5S21.43,44.68,19.65,44.68Z"/><polygon class="cls-2" points="27.87 44.68 27.87 47.6 25.25 47.6 25.25 44.68 23.47 44.68 23.47 52.23 25.25 52.23 25.25 49.15 27.87 49.15 27.87 52.23 29.64 52.23 29.64 44.68 27.87 44.68"/></svg>